<?xml version="1.0" encoding="utf-8"?>
<!-- Generator: Adobe Illustrator 19.2.1, SVG Export Plug-In . SVG Version: 6.00 Build 0)  -->
<svg version="1.1" id="Слой_1" xmlns="http://www.w3.org/2000/svg" xmlns:xlink="http://www.w3.org/1999/xlink" x="0px" y="0px"
	 viewBox="0 0 40 40" style="enable-background:new 0 0 40 40;" xml:space="preserve">
<style type="text/css">
	.st0{fill:#CFD8DC;stroke:#B8BFC1;stroke-miterlimit:10;}
	.st1{fill:#E55151;stroke:#C13434;stroke-miterlimit:10;}
	.st2{fill:#929596;stroke:#9FA4A5;stroke-miterlimit:10;}
</style>
<path class="st0" d="M33.6,38H6.4C3.9,38,2,36.1,2,33.7V7.6c0-2.4,1.9-4.4,4.4-4.4h27.3c2.4,0,4.4,1.9,4.4,4.4v26.1
	C38,36.1,36.1,38,33.6,38z"/>
<path class="st1" d="M34.5,3.2h-29C3.6,3.2,2,4.8,2,6.7v4.4c0,0.1,0.1,0.1,0.1,0.1h35.7c0.1,0,0.1-0.1,0.1-0.1V6.7
	C38,4.8,36.4,3.2,34.5,3.2z"/>
<path class="st0" d="M10,7.6L10,7.6C9.2,7.6,8.6,7,8.6,6.3V2.7C8.6,2,9.2,1.4,10,1.4h0c0.8,0,1.4,0.6,1.4,1.4v3.6
	C11.4,7,10.8,7.6,10,7.6z"/>
<path class="st0" d="M30,7.6L30,7.6c-0.8,0-1.4-0.6-1.4-1.4V2.7c0-0.8,0.6-1.4,1.4-1.4h0c0.8,0,1.4,0.6,1.4,1.4v3.6
	C31.4,7,30.8,7.6,30,7.6z"/>
<rect x="6.8" y="15.8" class="st2" width="6.4" height="6.4"/>
<rect x="26.8" y="15.8" class="st2" width="6.4" height="6.4"/>
<rect x="16.8" y="15.8" class="st2" width="6.4" height="6.4"/>
<rect x="6.8" y="25.8" class="st2" width="6.4" height="6.4"/>
<rect x="26.8" y="25.8" class="st2" width="6.4" height="6.4"/>
<rect x="16.8" y="25.8" class="st2" width="6.4" height="6.4"/>
</svg>
