<?xml version="1.0" encoding="utf-8"?>
<!-- Generator: Adobe Illustrator 19.2.1, SVG Export Plug-In . SVG Version: 6.00 Build 0)  -->
<svg version="1.1" id="Слой_1" xmlns="http://www.w3.org/2000/svg" xmlns:xlink="http://www.w3.org/1999/xlink" x="0px" y="0px"
	 viewBox="0 0 40 40" style="enable-background:new 0 0 40 40;" xml:space="preserve">
<style type="text/css">
	.st0{fill:#589647;stroke:#3B702E;stroke-width:2;stroke-miterlimit:10;}
	.st1{fill:#EFD8D8;stroke:#E2CCCC;stroke-width:2;stroke-miterlimit:10;}
	.st2{fill:#F9F9F9;stroke:#F4F4F4;stroke-width:2;stroke-miterlimit:10;}
	.st3{fill:#EFD8D8;stroke:#E2CCCC;stroke-miterlimit:10;}
</style>
<path class="st0" d="M11.2,19.8l-8,16.5c-0.5,0.8,0.1,1.7,1,1.7h20c0.9,0,1.4-0.9,1.1-1.7l-7.7-16.5C16.3,17.1,12.5,17.1,11.2,19.8z
	"/>
<circle class="st1" cx="14.2" cy="18.3" r="8.9"/>
<polygon class="st0" points="7.5,11 14.2,5.3 21,11 "/>
<path class="st2" d="M21.2,14.8h-14c-1.1,0-1.9-0.9-1.9-1.9l0,0c0-1.1,0.9-1.9,1.9-1.9h13.9c1.1,0,1.9,0.9,1.9,1.9l0,0
	C23.1,14,22.2,14.8,21.2,14.8z"/>
<path class="st2" d="M14.2,6L14.2,6c-1.1,0-1.9-0.9-1.9-1.9l0,0c0-1.1,0.9-1.9,1.9-1.9l0,0c1.1,0,1.9,0.9,1.9,1.9l0,0
	C16.1,5.2,15.3,6,14.2,6z"/>
<polygon class="st3" points="21.5,17.3 25.8,14.5 22.3,21 "/>
<polygon class="st3" points="7,17.3 1.7,14.5 6.1,21 "/>
</svg>
