<?xml version="1.0" encoding="utf-8"?>
<!-- Generator: Adobe Illustrator 19.2.1, SVG Export Plug-In . SVG Version: 6.00 Build 0)  -->
<svg version="1.1" id="Слой_1" xmlns="http://www.w3.org/2000/svg" xmlns:xlink="http://www.w3.org/1999/xlink" x="0px" y="0px"
	 viewBox="0 0 40 40" style="enable-background:new 0 0 40 40;" xml:space="preserve">
<style type="text/css">
	.st0{fill:none;stroke:#705B37;stroke-miterlimit:10;}
	.st1{fill:#589647;stroke:#3B702E;stroke-miterlimit:10;}
	.st2{fill:none;stroke:#356029;stroke-miterlimit:10;}
	.st3{fill:none;stroke:#3A682D;stroke-miterlimit:10;}
	.st4{fill:none;stroke:#828282;stroke-miterlimit:10;}
	.st5{fill:none;stroke:#2C4F22;stroke-width:2;stroke-miterlimit:10;}
	.st6{fill:#EFD8D8;stroke:#E2CCCC;stroke-miterlimit:10;}
	.st7{fill:none;stroke:#EAEAEA;stroke-width:2;stroke-miterlimit:10;}
</style>
<line class="st0" x1="4.3" y1="9.7" x2="17.1" y2="21.2"/>
<path class="st1" d="M29.9,28.1l-4.8,1.2c-1,0.3-2-0.4-2.2-1.4l-2.1-9c-0.2-1,0.4-2.1,1.3-2.3l4.8-1.2c1-0.3,2,0.4,2.2,1.4l2.1,9
	C31.5,26.8,30.9,27.8,29.9,28.1z"/>
<path class="st2" d="M11.9,16.4"/>
<path class="st2" d="M26.7,18.7"/>
<line class="st3" x1="21.4" y1="21.6" x2="12.7" y2="16.6"/>
<path class="st4" d="M2.3,19.5l-0.1-3.7c-0.2-4.6,2.7-8.7,7-10l3-0.9"/>
<polyline class="st5" points="27.2,28.8 19.7,32.3 24.2,38.2 "/>
<polyline class="st5" points="27.7,27.8 29,33.3 35.3,34.6 "/>
<line class="st2" x1="27.1" y1="19" x2="12.3" y2="16.6"/>
<ellipse class="st6" cx="22.8" cy="9.9" rx="5.2" ry="5.5"/>
<polygon class="st1" points="23.1,4.1 31.5,3.6 28.7,9.2 "/>
<path class="st7" d="M21.1,4.7L21.1,4.7c3.7-0.4,7,2.3,7.4,6.2l0,0"/>
<path class="st7" d="M33.2,3.6c-0.2,0.4-0.6,0.6-1,0.5c-0.4-0.2-0.6-0.6-0.4-1.1s0.6-0.6,1-0.5S33.4,3.1,33.2,3.6z"/>
<polygon class="st6" points="23.7,9.6 24,9.5 29.9,9.2 24.3,12.8 "/>
</svg>
