<?xml version="1.0" encoding="utf-8"?>
<!-- Generator: Adobe Illustrator 19.2.1, SVG Export Plug-In . SVG Version: 6.00 Build 0)  -->
<svg version="1.1" id="Слой_1" xmlns="http://www.w3.org/2000/svg" xmlns:xlink="http://www.w3.org/1999/xlink" x="0px" y="0px"
	 viewBox="0 0 200 50" style="enable-background:new 0 0 200 50;" xml:space="preserve">
<style type="text/css">
	.st0{fill:#B8D1CF;}
	.st1{fill:#C67F4E;}
	.st2{fill:#B26E3F;}
	.st3{fill:#AD6534;}
</style>
<path class="st0" d="M200,45H0V8.5h2.4c12.6,0,20.6,5.1,28,3.8l17.8-4.6C56.6,5.9,67.4,4,73.8,5.5l27.5,6.6
	c13.7,3.3,28,2.3,41.2-2.6l0,0c1.7-0.6,3.4-1,5.2-1l16.1,2c10,2.4,15.6,2.2,31.1-1.5l5.1-0.5L200,45L200,45z"/>
<path class="st1" d="M200,50H0V13.5h2.4c12.6,0,20.6,5.1,28,3.8l17.8-4.6c8.4-1.8,19.2-3.7,25.6-2.2l27.5,6.6
	c13.7,3.3,28,2.3,41.2-2.6l0,0c1.7-0.6,3.4-1,5.2-1l16.1,2c10,2.4,15.6,2.2,31.1-1.5l5.1-0.5L200,50L200,50z"/>
<rect x="0" y="25" class="st2" width="200" height="2.8"/>
<rect x="0" y="47.4" class="st3" width="200" height="2.6"/>
</svg>
