<?xml version="1.0" encoding="utf-8"?>
<!-- Generator: Adobe Illustrator 19.2.1, SVG Export Plug-In . SVG Version: 6.00 Build 0)  -->
<svg version="1.1" id="Слой_1" xmlns="http://www.w3.org/2000/svg" xmlns:xlink="http://www.w3.org/1999/xlink" x="0px" y="0px"
	 viewBox="0 0 65 100" style="enable-background:new 0 0 65 100;" xml:space="preserve">
<style type="text/css">
	.st0{fill:#7F5E40;stroke:#70523A;stroke-width:3;stroke-miterlimit:10;}
	.st1{fill:#7A4731;stroke:#6D3C23;stroke-width:3;stroke-miterlimit:10;}
	.st2{fill:#FFD561;stroke:#936B44;stroke-width:3;stroke-miterlimit:10;}
	.st3{fill:none;stroke:#936B44;stroke-width:3;stroke-miterlimit:10;}
	.st4{fill:#D0DFE2;stroke:#C7D1D3;stroke-width:2;stroke-miterlimit:10;}
</style>
<polygon class="st0" points="52.5,96.3 13.1,96.3 8.4,46.3 57.4,46.3 "/>
<polygon class="st1" points="43.1,21.8 23.3,21.8 3.5,45.3 61.8,45.3 "/>
<polygon class="st2" points="43,82.6 21.5,82.6 18,54 46.6,54 "/>
<line class="st3" x1="19.7" y1="68.3" x2="44.8" y2="68.3"/>
<line class="st3" x1="32.3" y1="54" x2="32.3" y2="82.6"/>
<polygon class="st4" points="23.3,21 12.8,33.4 15.6,38.8 20.5,34.4 25.6,41.9 29,31.4 38.6,34.5 35.5,28.1 51.5,31.5 43.2,21 "/>
<polygon class="st4" points="12.7,97 11.9,88.7 16.6,94 21.5,90.7 27.3,95 34.7,93.1 40.2,96 44.4,89.7 49.6,95.7 53.4,92.9 
	52.9,97 "/>
</svg>
