<?xml version="1.0" encoding="utf-8"?>
<!-- Generator: Adobe Illustrator 19.2.1, SVG Export Plug-In . SVG Version: 6.00 Build 0)  -->
<svg version="1.1" id="Слой_1" xmlns="http://www.w3.org/2000/svg" xmlns:xlink="http://www.w3.org/1999/xlink" x="0px" y="0px"
	 viewBox="0 0 400 400" style="enable-background:new 0 0 400 400;" xml:space="preserve">
<style type="text/css">
	.st0{fill:#9ED0D8;stroke:#77A5AA;stroke-width:3;stroke-miterlimit:10;}
	.st1{fill:none;stroke:#77A5AA;stroke-width:3;stroke-miterlimit:10;}
	.st2{fill:#D0DFE2;stroke:#C7D1D3;stroke-width:3;stroke-miterlimit:10;}
	.st3{fill:#448E62;stroke:#447759;stroke-width:2;stroke-miterlimit:10;}
	.st4{fill:none;stroke:#874848;stroke-width:3;stroke-miterlimit:10;}
</style>
<polygon class="st0" points="396.5,386.5 365.1,289.2 352.6,299.2 332.6,202.3 300.6,240.6 310.1,114.6 276.1,126.4 266.6,167 
	244.6,49.6 198.2,19.6 175.7,60.3 194.7,141 138.2,138.2 91.7,192.6 56.7,155.1 8.3,162.5 31.2,213.3 88.2,246 70.7,300.2 
	55.2,278.2 12.6,386.5 "/>
<line class="st1" x1="70.7" y1="300.2" x2="61.5" y2="339.7"/>
<line class="st1" x1="91.7" y1="192.6" x2="103.7" y2="205.4"/>
<line class="st1" x1="266.6" y1="167" x2="261.1" y2="192.6"/>
<polygon class="st0" points="115.9,164 101.1,129.7 115.7,87.4 152.5,114.5 152.5,138.7 138,138.2 "/>
<path class="st2" d="M12.6,387.5L24.4,357l24.4,11.1l35.6-11.5l25.2,9.1l34.2-16.2l23.4,15.3l30.1-5.4l26.7-16.7l14.4,12.6l25.4,9.3
	c0,0,21.4,11.4,22.8,9.6c1.4-1.8,19.8-24.8,19.8-24.8l14.4,15.2l29.3-10.2l22.1,14.9l16.5-6.2l7.8,24.5H12.6z"/>
<g>
	<g>
		<polygon class="st3" points="182.7,175.2 169.5,166.9 176.4,147.6 201.5,157.2 		"/>
		<line class="st4" x1="189.6" y1="152.5" x2="176.8" y2="171.1"/>
		<line class="st4" x1="188.3" y1="147.3" x2="189.7" y2="157.3"/>
		<line class="st4" x1="196.1" y1="151.4" x2="182.1" y2="153.7"/>
	</g>
</g>
<g>
	<g>
		<polygon class="st3" points="275.7,340.6 297.6,331.8 302.1,342.7 288.8,346.7 		"/>
		<line class="st4" x1="294.9" y1="345" x2="286.1" y2="336.5"/>
		<line class="st4" x1="298" y1="346.4" x2="291.5" y2="343.8"/>
		<line class="st4" x1="294" y1="346.9" x2="296.8" y2="342.3"/>
	</g>
</g>
<g>
	<g>
		<polygon class="st3" points="124.6,183.6 110.6,180.5 117.4,165.7 133.5,170.8 		"/>
		<line class="st4" x1="125.6" y1="168.4" x2="117.8" y2="182.2"/>
		<line class="st4" x1="124.7" y1="165" x2="126.1" y2="171.6"/>
		<line class="st4" x1="129.5" y1="167.3" x2="120.9" y2="169.7"/>
	</g>
</g>
<g>
	<g>
		<polygon class="st3" points="215.1,244.5 207.8,232.1 220.4,225.4 232.9,238 		"/>
		<line class="st4" x1="226.1" y1="231.7" x2="210.9" y2="238.2"/>
		<line class="st4" x1="226.4" y1="228.3" x2="225" y2="234.6"/>
		<line class="st4" x1="230.1" y1="232.7" x2="221.5" y2="230.2"/>
	</g>
</g>
<g>
	<g>
		<polygon class="st3" points="78.1,185.2 55.8,201.2 43.9,189.2 57.9,172.4 		"/>
		<line class="st4" x1="49.7" y1="180.7" x2="65.8" y2="193.1"/>
		<line class="st4" x1="43.6" y1="180.9" x2="55.8" y2="181"/>
		<line class="st4" x1="48.7" y1="176.1" x2="50.2" y2="186.4"/>
	</g>
</g>
<g>
	<g>
		<polygon class="st3" points="98.5,281.3 89.1,274 113.8,269.2 112.7,281.4 		"/>
		<line class="st4" x1="112.9" y1="275.4" x2="93.5" y2="277.8"/>
		<line class="st4" x1="117" y1="273" x2="109.5" y2="277.3"/>
		<line class="st4" x1="115.2" y1="277.2" x2="109.7" y2="273.4"/>
	</g>
</g>
<g>
	<g>
		<polygon class="st3" points="294.3,159.1 283.2,166.8 276,158.4 287.2,150.9 		"/>
		<line class="st4" x1="281.4" y1="154.5" x2="288.5" y2="162.8"/>
		<line class="st4" x1="278" y1="153.9" x2="284.4" y2="155.2"/>
		<line class="st4" x1="281.9" y1="151.9" x2="280.4" y2="157.6"/>
	</g>
</g>
<g>
	<g>
		<polygon class="st3" points="206.7,64.3 217,60.7 224.9,71.7 209.3,75 		"/>
		<line class="st4" x1="217.3" y1="73.4" x2="212.1" y2="62.5"/>
		<line class="st4" x1="221.2" y1="75" x2="214.2" y2="71.7"/>
		<line class="st4" x1="215.7" y1="75.5" x2="219.3" y2="70.8"/>
	</g>
</g>
<g>
	<g>
		<polygon class="st3" points="327.8,255.6 344,275.3 320.9,288.5 308.2,269.1 		"/>
		<line class="st4" x1="316.6" y1="279" x2="337.9" y2="265.6"/>
		<line class="st4" x1="315.4" y1="284.8" x2="317.9" y2="273.7"/>
		<line class="st4" x1="312.2" y1="278" x2="321.9" y2="280.6"/>
	</g>
</g>
<g>
	<g>
		<polygon class="st3" points="195.9,291 176.1,290.8 168.4,278.6 200.7,270.8 		"/>
		<line class="st4" x1="185.1" y1="274.4" x2="186.5" y2="290.6"/>
		<line class="st4" x1="179.8" y1="272.4" x2="188.9" y2="277"/>
		<line class="st4" x1="190.6" y1="270.4" x2="178.6" y2="278.8"/>
	</g>
</g>
<path class="st1" d="M56.7,155.1"/>
<polygon class="st2" points="74.1,173.7 70.7,195.3 77.2,222.3 85.3,201.3 95.5,214.7 111.1,209.3 "/>
<polygon class="st2" points="108.3,173.4 130.7,166.8 126.8,192.5 152.5,182.6 169.4,192.5 180.5,172.7 180.5,154 209.2,156.5 
	194.7,140 138,137.2 "/>
<g>
	<g>
		<polygon class="st3" points="145.4,125.3 124.7,134.4 113.9,119.7 129.2,110.3 		"/>
		<line class="st4" x1="122.4" y1="115" x2="135.8" y2="129.9"/>
		<line class="st4" x1="118.2" y1="113.6" x2="126.6" y2="116.7"/>
		<line class="st4" x1="123.1" y1="111.4" x2="120.7" y2="119.5"/>
	</g>
</g>
<polygon class="st2" points="106,115.4 114.1,125.7 120.9,106.1 136.6,115.9 138.7,125.7 144.8,108.8 115.7,87.4 "/>
<polygon class="st2" points="8.3,162.5 24.8,199 29.9,184 52.9,191.9 43.4,171.4 56.7,162.5 44,157.1 "/>
<polygon class="st2" points="88.4,246 117.3,257.9 121.3,273.2 101.1,268.1 93.4,281.8 88.5,273 76.2,283.4 "/>
<polygon class="st2" points="55.2,278.2 38.4,320.9 52,304.3 61.5,317.8 67.4,295.5 "/>
<polygon class="st2" points="180.1,79.7 187.5,64.3 200,95.1 209.1,57.9 227.5,70.5 227.5,92 239.8,70.5 250.2,79.5 244.6,49.6 
	198.2,19.6 175.7,60.3 "/>
<polygon class="st2" points="270.9,148.8 276.1,126.4 310.1,114.6 304.3,191.9 299.5,173.7 282.6,198 290.5,147.1 275.8,164.8 "/>
<polygon class="st2" points="332.6,202.3 300.6,240.6 285.7,270.1 309.2,257.9 315,289 330.3,255.4 347.9,309.3 349.8,285.8 "/>
<polygon class="st2" points="352.6,299.2 356.5,323.2 363,311.2 382.4,342.6 365.1,289.2 "/>
<polygon class="st2" points="204.6,219.5 144.8,236.3 175.7,243.5 142.5,289.2 188.4,273.2 229.4,302 224.5,255.8 "/>
<polygon class="st2" points="265.5,299.5 250.2,325.9 253.8,342.6 263.9,329.1 282.1,349.4 285.7,333.1 302,337.6 297.9,305.7 "/>
</svg>
