<?xml version="1.0" encoding="utf-8"?>
<!-- Generator: Adobe Illustrator 19.2.1, SVG Export Plug-In . SVG Version: 6.00 Build 0)  -->
<svg version="1.1" id="Слой_1" xmlns="http://www.w3.org/2000/svg" xmlns:xlink="http://www.w3.org/1999/xlink" x="0px" y="0px"
	 viewBox="0 0 400 200" style="enable-background:new 0 0 400 200;" xml:space="preserve">
<style type="text/css">
	.st0{fill:#A7BBBC;}
	.st1{fill:#C7E0E2;}
	.st2{fill:#EBF9FC;}
	.st3{fill:#EBF2F2;}
</style>
<path class="st0" d="M0,100l49.8-80.3l34,52.6l48.8-58.7l50,96.9l21.5-24.5l20.3,14.1l35.1-61.5l6.1,16l20.5-45.3l15.6,80.2
	c0,0,15.8-12.3,15.9-12s25.8,26.9,26.3,26.2c0.5-0.7,34.7-43.8,34.7-43.8L400,100v100H0V100z"/>
<path class="st1" d="M0,104l49.8-80.3l34,52.6l48.8-58.7l50,96.9l21.5-24.5l20.3,14.1l33.9-59.4l6.9,14.9l20.3-39.8l14.3,74.5
	c0,0,17.7-13,17.8-12.7s25.8,26.9,26.3,26.2c0.5-0.7,34.7-43.8,34.7-43.8L400,104v100H0V104z"/>
<rect y="191.4" class="st2" width="400" height="8.6"/>
<polygon class="st3" points="20.7,70.7 35,63.3 33.1,86.6 55.5,66.4 70.1,77 75.5,63.4 49.8,23.7 "/>
<polygon class="st3" points="100.5,56.2 114.9,50.1 120.4,71.8 133.1,59.5 145.8,86.6 154.1,75.8 169,88.1 132.6,17.5 "/>
<polygon class="st3" points="204.1,89.9 189.2,106.9 200,103.6 209.3,116.4 214,109.3 241.8,119.2 224.4,104 "/>
<path class="st3" d="M258.3,44.6l-25.9,45.3l14.1-14.6c0,0,2.1,10.6,2.4,9.9c0.2-0.7,9.4-18,9.4-18l19.6,15.6l-12.7-23.3L258.3,44.6
	z"/>
<polygon class="st3" points="285.5,19.7 267.4,55.2 273.4,49.8 281,78.2 285.5,64 302.7,112.8 299.8,94.2 "/>
<polygon class="st3" points="302.7,92.1 317.7,81.4 334.3,98.6 321.8,95.1 314,109.8 310.7,94 "/>
<polygon class="st3" points="378.6,63.9 344,107.6 324.4,136.4 348,119.2 350.3,128.4 368.2,102.2 374.6,122.3 385.5,100 
	398.5,101.1 "/>
</svg>
