<?xml version="1.0" encoding="utf-8"?>
<!-- Generator: Adobe Illustrator 19.2.1, SVG Export Plug-In . SVG Version: 6.00 Build 0)  -->
<svg version="1.1" id="Слой_1" xmlns="http://www.w3.org/2000/svg" xmlns:xlink="http://www.w3.org/1999/xlink" x="0px" y="0px"
	 viewBox="0 0 150 150" style="enable-background:new 0 0 150 150;" xml:space="preserve">
<style type="text/css">
	.st0{fill:#0C6D33;stroke:#0B592A;stroke-width:2;stroke-miterlimit:10;}
	.st1{fill:#9E1313;stroke:#8E1313;stroke-width:2;stroke-miterlimit:10;}
	.st2{fill:#891515;}
	.st3{fill:#7F1616;}
	.st4{fill:#0B602D;}
	.st5{fill:#177A3F;}
	.st6{fill:#06853F;}
	.st7{fill:#AF1717;stroke:#911414;stroke-width:2;stroke-miterlimit:10;}
	.st8{fill:#1C9951;}
	.st9{fill:#C42626;stroke:#AF2222;stroke-miterlimit:10;}
</style>
<polygon class="st0" points="132.8,139.6 19.5,139.5 6.9,39.6 143.1,39.6 "/>
<rect x="69.9" y="39.6" class="st1" width="9.8" height="100"/>
<polygon class="st2" points="53.2,75 36.4,63.3 68.9,39.6 76.7,39.6 "/>
<polygon class="st3" points="105.7,60.2 92.9,70.2 73.2,39.6 80.7,39.6 "/>
<polygon class="st4" points="55,72.2 59.7,75 68.9,58.5 68.9,51.3 "/>
<polygon class="st4" points="94.3,69.1 97.2,73.1 106.6,66.1 102.9,62.5 "/>
<circle class="st5" cx="24" cy="54.2" r="5.6"/>
<ellipse class="st5" cx="45.7" cy="104.3" rx="9.3" ry="10.9"/>
<circle class="st5" cx="60.9" cy="86.3" r="5.8"/>
<ellipse class="st5" cx="40.2" cy="80.7" rx="7.5" ry="6.4"/>
<ellipse class="st5" cx="33.2" cy="130" rx="8.3" ry="7.4"/>
<circle class="st5" cx="97.2" cy="112.8" r="7.7"/>
<ellipse class="st5" cx="121.9" cy="126.5" rx="6.9" ry="7.7"/>
<circle class="st5" cx="123.9" cy="96.7" r="10.4"/>
<circle class="st5" cx="92.8" cy="82.3" r="5.6"/>
<ellipse class="st5" cx="120.1" cy="60.8" rx="8.7" ry="9.5"/>
<rect x="3" y="31.7" class="st6" width="144" height="9.1"/>
<rect x="67.7" y="32.7" class="st7" width="14.2" height="7.1"/>
<polygon class="st8" points="3,31.7 66.7,35.4 66.7,31.7 "/>
<polygon class="st8" points="82.9,35.4 82.9,31.7 147,31.7 "/>
<polygon class="st9" points="68.9,31.7 55,23.4 62,16.9 75,31.7 "/>
<polygon class="st9" points="71.3,31.7 86,17.9 92,23.3 80,31.7 "/>
<polygon class="st9" points="72.3,31.7 69.9,12 80,12 77.7,31.7 "/>
</svg>
