<?xml version="1.0" encoding="utf-8"?>
<!-- Generator: Adobe Illustrator 19.2.1, SVG Export Plug-In . SVG Version: 6.00 Build 0)  -->
<svg version="1.1" id="Слой_1" xmlns="http://www.w3.org/2000/svg" xmlns:xlink="http://www.w3.org/1999/xlink" x="0px" y="0px"
	 viewBox="0 0 250 250" style="enable-background:new 0 0 250 250;" xml:space="preserve">
<style type="text/css">
	.st0{fill:#EBF9FC;}
	.st1{fill:#DDEDEC;stroke:#E9F4F4;stroke-width:3;stroke-miterlimit:10;}
	.st2{fill:#D1E6E8;stroke:#DAEDEF;stroke-width:3;stroke-miterlimit:10;}
	.st3{fill:#D9F2F4;stroke:#E4F3F4;stroke-width:3;stroke-miterlimit:10;}
</style>
<rect class="st0" width="250.2" height="250.2"/>
<path class="st1" d="M199.8,48.1l-9.7-3.6c-4.5-1.7-6.9-6.7-5.2-11.3l0,0c1.7-4.5,6.7-6.9,11.3-5.2l9.7,3.6
	c4.5,1.7,6.9,6.7,5.2,11.3l0,0C209.4,47.4,204.4,49.8,199.8,48.1z"/>
<path class="st2" d="M72.9,75.5l-9.1,6.4c-4,2.8-9.4,1.8-12.2-2.2L46.9,73c-2.8-4-1.8-9.4,2.2-12.2l9.1-6.4c4-2.8,9.4-1.8,12.2,2.2
	l4.6,6.7C77.8,67.3,76.8,72.7,72.9,75.5z"/>
<path class="st3" d="M149.4,210.2L149.4,210.2c-4.5-1.7-6.9-6.7-5.2-11.3l1.6-4.4c1.7-4.5,6.7-6.9,11.3-5.2l0,0
	c4.5,1.7,6.9,6.7,5.2,11.3l-1.6,4.4C159,209.6,154,211.9,149.4,210.2z"/>
</svg>
