<?xml version="1.0" encoding="utf-8"?>
<!-- Generator: Adobe Illustrator 19.2.1, SVG Export Plug-In . SVG Version: 6.00 Build 0)  -->
<svg version="1.1" id="Слой_1" xmlns="http://www.w3.org/2000/svg" xmlns:xlink="http://www.w3.org/1999/xlink" x="0px" y="0px"
	 viewBox="0 0 40 40" style="enable-background:new 0 0 40 40;" xml:space="preserve">
<style type="text/css">
	.st0{fill:#EBEDED;stroke:#C1C1C1;stroke-width:2;stroke-miterlimit:10;}
	.st1{fill:#DBDBDB;stroke:#C1C1C1;stroke-width:2;stroke-miterlimit:10;}
	.st2{fill:#D12828;stroke:#8C1C1C;stroke-width:2;stroke-miterlimit:10;}
	.st3{fill:#F9F9F9;stroke:#F4F4F4;stroke-width:2;stroke-miterlimit:10;}
</style>
<path class="st0" d="M10.2,19.8l-8,16.5c-0.5,0.8,0.1,1.7,1,1.7h20c0.9,0,1.4-0.9,1.1-1.7l-7.7-16.5C15.3,17.1,11.5,17.1,10.2,19.8z
	"/>
<circle class="st1" cx="13.2" cy="18.3" r="8.9"/>
<polygon class="st2" points="6.5,11 13.2,5.3 20,11 "/>
<path class="st3" d="M20.2,14.8h-14c-1.1,0-1.9-0.9-1.9-1.9l0,0c0-1.1,0.9-1.9,1.9-1.9h13.9c1.1,0,1.9,0.9,1.9,1.9l0,0
	C22.1,14,21.2,14.8,20.2,14.8z"/>
<path class="st3" d="M13.2,6L13.2,6c-1.1,0-1.9-0.9-1.9-1.9l0,0c0-1.1,0.9-1.9,1.9-1.9l0,0c1.1,0,1.9,0.9,1.9,1.9l0,0
	C15.1,5.2,14.3,6,13.2,6z"/>
</svg>
